<svg xmlns="http://www.w3.org/2000/svg" xmlns:xlink="http://www.w3.org/1999/xlink" width="569.419" height="557.125" viewBox="0 0 569.419 557.125">
  <defs>
    <clipPath id="clip-path">
      <path id="path16" d="M0,467.52H569.419V-89.605H0Z" transform="translate(0 89.605)"/>
    </clipPath>
  </defs>
  <g id="g14" clip-path="url(#clip-path)">
    <g id="g24" transform="translate(8.524 0.002)">
      <path id="path26" d="M233.76,467.52c153.847,0,278.562-124.716,278.562-278.562S387.607-89.605,233.76-89.605-44.8,35.111-44.8,188.957,79.913,467.52,233.76,467.52" transform="translate(44.803 89.605)" fill="#0a40c9"/>
    </g>
    <g id="g28" transform="translate(106.149 130.89)">
      <path id="path30" d="M32.537,65.073A38.773,38.773,0,1,0-6.236,26.3,38.773,38.773,0,0,0,32.537,65.073" transform="translate(6.236 12.472)" fill="#fff"/>
    </g>
    <g id="g32" transform="translate(248.314 93.509)">
      <path id="path34" d="M32.537,65.073A38.773,38.773,0,1,0-6.236,26.3,38.773,38.773,0,0,0,32.537,65.073" transform="translate(6.236 12.472)" fill="#fff"/>
    </g>
    <g id="g36" transform="translate(390.49 132.284)">
      <path id="path38" d="M32.537,65.073A38.773,38.773,0,1,0-6.236,26.3,38.773,38.773,0,0,0,32.537,65.073" transform="translate(6.236 12.472)" fill="#fff"/>
    </g>
    <g id="g40" transform="translate(4.426 193.605)">
      <path id="path42" d="M474.121,111.6H393.269V77.677a59.829,59.829,0,1,0-119.659,0v76.965l-21.4-.464V38.44a59.829,59.829,0,1,0-119.659,0V179.263l-22.881-.473V75.969a59.829,59.829,0,1,0-119.659,0v33.923H-90.87c1.011,6.043,2.188,12.012,3.581,17.915H-1.04a9.009,9.009,0,0,0,6.334-2.62,9.039,9.039,0,0,0,2.62-6.334V75.969A41.91,41.91,0,0,1,84.6,52.541a41.634,41.634,0,0,1,7.154,23.428V187.562a8.97,8.97,0,0,0,8.771,8.953l40.787.854a8.961,8.961,0,0,0,9.144-8.953V38.44a41.919,41.919,0,1,1,83.837,0v124.5a8.963,8.963,0,0,0,8.763,8.953l39.32.854a8.947,8.947,0,0,0,9.144-8.953V77.677a41.919,41.919,0,1,1,83.837,0v42.876a8.972,8.972,0,0,0,8.962,8.962h86.051c1.434-5.911,2.7-11.863,3.755-17.915" transform="translate(90.87 21.389)" fill="#fff"/>
    </g>
    <g id="g44" transform="translate(4.426 193.605)">
      <path id="path46" d="M474.121,111.6H393.269V77.677a59.829,59.829,0,1,0-119.659,0v76.965l-21.4-.464V38.44a59.829,59.829,0,1,0-119.659,0V179.263l-22.881-.473V75.969a59.829,59.829,0,1,0-119.659,0v33.923H-90.87c1.011,6.043,2.188,12.012,3.581,17.915H-1.04a9.009,9.009,0,0,0,6.334-2.62,9.039,9.039,0,0,0,2.62-6.334V75.969A41.91,41.91,0,0,1,84.6,52.541a41.634,41.634,0,0,1,7.154,23.428V187.562a8.97,8.97,0,0,0,8.771,8.953l40.787.854a8.961,8.961,0,0,0,9.144-8.953V38.44a41.919,41.919,0,1,1,83.837,0v124.5a8.963,8.963,0,0,0,8.763,8.953l39.32.854a8.947,8.947,0,0,0,9.144-8.953V77.677a41.919,41.919,0,1,1,83.837,0v42.876a8.972,8.972,0,0,0,8.962,8.962h86.051C471.8,123.6,473.069,117.652,474.121,111.6Z" transform="translate(90.87 21.389)" fill="none" stroke="#fff" stroke-miterlimit="10" stroke-width="1.205"/>
    </g>
  </g>
</svg>
