<?xml version="1.0" encoding="UTF-8" standalone="no"?>
<svg
   xmlns:dc="http://purl.org/dc/elements/1.1/"
   xmlns:cc="http://creativecommons.org/ns#"
   xmlns:rdf="http://www.w3.org/1999/02/22-rdf-syntax-ns#"
   xmlns:svg="http://www.w3.org/2000/svg"
   xmlns="http://www.w3.org/2000/svg"
   viewBox="0 0 490.18268 89.605064"
   height="89.605064"
   width="490.18268"
   xml:space="preserve"
   id="svg2"
   version="1.1"><metadata
     id="metadata8"><rdf:RDF><cc:Work
         rdf:about=""><dc:format>image/svg+xml</dc:format><dc:type
           rdf:resource="http://purl.org/dc/dcmitype/StillImage" /></cc:Work></rdf:RDF></metadata><defs
     id="defs6"><clipPath
       id="clipPath18"
       clipPathUnits="userSpaceOnUse"><path
         id="path16"
         d="M 0,0 H 367.637 V 67.204 H 0 Z" /></clipPath></defs><g
     transform="matrix(1.3333333,0,0,-1.3333333,0,89.605067)"
     id="g10"><g
       id="g12"><g
         clip-path="url(#clipPath18)"
         id="g14"><g
           transform="translate(111.1754,32.8936)"
           id="g20"><path
             id="path22"
             style="fill:#111643;fill-opacity:1;fill-rule:nonzero;stroke:none"
             d="m 0,0 c 0,7.138 -4.432,11.207 -10.217,11.207 -5.816,0 -10.216,-4.069 -10.216,-11.207 0,-7.106 4.4,-11.207 10.216,-11.207 C -4.432,-11.207 0,-7.138 0,0 m -4.677,0 c 0,-4.624 -2.194,-7.127 -5.54,-7.127 -3.355,0 -5.539,2.503 -5.539,7.127 0,4.624 2.184,7.127 5.539,7.127 3.346,0 5.54,-2.503 5.54,-7.127 M 7.862,-1.449 c 0.011,2.11 1.268,3.345 3.101,3.345 1.821,0 2.919,-1.193 2.908,-3.196 v -9.609 h 4.538 V -0.49 c 0,3.814 -2.237,6.158 -5.646,6.158 -2.429,0 -4.187,-1.194 -4.922,-3.101 H 7.649 V 5.455 H 3.324 v -16.364 h 4.538 z m 18.655,12.358 h -4.538 v -21.818 h 4.538 z m 3.622,-21.818 h 4.538 V 5.455 h -4.538 z m 2.28,18.473 c 1.353,0 2.461,1.033 2.461,2.301 0,1.257 -1.108,2.291 -2.461,2.291 -1.343,0 -2.45,-1.034 -2.45,-2.291 0,-1.268 1.107,-2.301 2.45,-2.301 m 10.419,-9.013 c 0.011,2.11 1.268,3.345 3.1,3.345 1.822,0 2.919,-1.193 2.908,-3.196 v -9.609 h 4.539 V -0.49 c 0,3.814 -2.237,6.158 -5.647,6.158 -2.429,0 -4.186,-1.194 -4.921,-3.101 h -0.192 v 2.888 h -4.326 v -16.364 h 4.539 z m 21.573,-9.78 c 4.049,0 6.776,1.971 7.415,5.007 l -4.197,0.277 c -0.459,-1.246 -1.63,-1.896 -3.143,-1.896 -2.269,0 -3.708,1.502 -3.708,3.942 v 0.011 h 11.144 v 1.246 c 0,5.561 -3.367,8.31 -7.692,8.31 -4.815,0 -7.937,-3.42 -7.937,-8.47 0,-5.188 3.079,-8.427 8.118,-8.427 m -3.633,10.153 c 0.096,1.864 1.513,3.356 3.527,3.356 1.971,0 3.334,-1.406 3.345,-3.356 z m 28.882,-9.833 c 6.647,0 10.674,4.112 10.674,10.93 0,6.797 -4.027,10.888 -10.61,10.888 h -7.799 v -21.818 z m -3.122,3.952 V 6.957 h 2.941 c 4.091,0 6.253,-2.088 6.253,-6.936 0,-4.868 -2.162,-6.978 -6.264,-6.978 z m 17.121,-3.952 h 4.538 V 5.455 h -4.538 z m 2.279,18.473 c 1.353,0 2.461,1.033 2.461,2.301 0,1.257 -1.108,2.291 -2.461,2.291 -1.342,0 -2.45,-1.034 -2.45,-2.291 0,-1.268 1.108,-2.301 2.45,-2.301 m 19.496,-6.776 c -0.405,3.015 -2.834,4.88 -6.967,4.88 -4.187,0 -6.946,-1.939 -6.936,-5.093 -0.01,-2.45 1.535,-4.037 4.731,-4.677 l 2.833,-0.564 c 1.428,-0.288 2.078,-0.81 2.099,-1.63 -0.021,-0.97 -1.076,-1.662 -2.663,-1.662 -1.62,0 -2.696,0.692 -2.973,2.024 l -4.463,-0.234 c 0.426,-3.132 3.089,-5.061 7.425,-5.061 4.24,0 7.276,2.163 7.287,5.391 -0.011,2.365 -1.555,3.782 -4.73,4.432 l -2.962,0.596 c -1.523,0.331 -2.088,0.853 -2.077,1.641 -0.011,0.98 1.097,1.619 2.503,1.619 1.577,0 2.515,-0.863 2.738,-1.917 z m 11.942,4.667 h -3.078 v 3.92 h -4.539 v -3.92 h -2.237 v -3.41 h 2.237 v -8.522 c -0.021,-3.207 2.163,-4.794 5.455,-4.656 1.172,0.043 2.003,0.277 2.461,0.426 l -0.714,3.377 c -0.224,-0.042 -0.703,-0.149 -1.129,-0.149 -0.906,0 -1.534,0.341 -1.534,1.598 v 7.926 h 3.078 z m 2.951,-16.364 h 4.539 v 9.258 c 0,2.013 1.47,3.398 3.473,3.398 0.628,0 1.491,-0.106 1.917,-0.245 v 4.027 c -0.405,0.096 -0.969,0.16 -1.427,0.16 -1.833,0 -3.335,-1.065 -3.931,-3.09 h -0.171 v 2.856 h -4.4 z m 12.262,0 h 4.538 V 5.455 h -4.538 z m 2.28,18.473 c 1.353,0 2.461,1.033 2.461,2.301 0,1.257 -1.108,2.291 -2.461,2.291 -1.342,0 -2.45,-1.034 -2.45,-2.291 0,-1.268 1.108,-2.301 2.45,-2.301 m 5.966,-18.473 h 4.475 v 2.621 h 0.202 c 0.629,-1.364 2.003,-2.887 4.645,-2.887 3.729,0 6.637,2.951 6.637,8.426 0,5.625 -3.036,8.417 -6.626,8.417 -2.738,0 -4.049,-1.63 -4.656,-2.962 h -0.138 v 8.203 h -4.539 z m 4.443,8.182 c 0,2.919 1.235,4.783 3.441,4.783 2.248,0 3.441,-1.949 3.441,-4.783 0,-2.855 -1.215,-4.837 -3.441,-4.837 -2.184,0 -3.441,1.918 -3.441,4.837 m 25.025,-1.215 c 0.01,-2.194 -1.492,-3.345 -3.122,-3.345 -1.715,0 -2.823,1.204 -2.834,3.132 v 9.61 h -4.538 V -4.964 c 0.011,-3.825 2.248,-6.158 5.54,-6.158 2.461,0 4.229,1.268 4.964,3.185 h 0.171 v -2.972 h 4.357 V 5.455 h -4.538 z m 16.864,9.397 h -3.079 v 3.92 h -4.538 v -3.92 h -2.237 v -3.41 h 2.237 v -8.522 c -0.021,-3.207 2.163,-4.794 5.454,-4.656 1.172,0.043 2.003,0.277 2.461,0.426 l -0.713,3.377 c -0.224,-0.042 -0.704,-0.149 -1.13,-0.149 -0.905,0 -1.534,0.341 -1.534,1.598 v 7.926 h 3.079 z m 10.238,-16.684 c 4.048,0 6.776,1.971 7.415,5.007 l -4.198,0.277 c -0.458,-1.246 -1.63,-1.896 -3.142,-1.896 -2.27,0 -3.708,1.502 -3.708,3.942 v 0.011 h 11.144 v 1.246 c 0,5.561 -3.367,8.31 -7.692,8.31 -4.815,0 -7.937,-3.42 -7.937,-8.47 0,-5.188 3.079,-8.427 8.118,-8.427 m -3.633,10.153 c 0.096,1.864 1.513,3.356 3.526,3.356 1.971,0 3.335,-1.406 3.346,-3.356 z m 24.599,-2.866 c 0.011,-2.194 -1.492,-3.345 -3.122,-3.345 -1.715,0 -2.823,1.204 -2.833,3.132 v 9.61 h -4.539 V -4.964 c 0.011,-3.825 2.248,-6.158 5.54,-6.158 2.461,0 4.229,1.268 4.965,3.185 h 0.17 v -2.972 h 4.357 V 5.455 h -4.538 z m 8.161,-6.967 h 4.538 v 9.258 c 0,2.013 1.47,3.398 3.473,3.398 0.629,0 1.491,-0.106 1.918,-0.245 v 4.027 c -0.405,0.096 -0.97,0.16 -1.428,0.16 -1.832,0 -3.334,-1.065 -3.931,-3.09 h -0.171 v 2.856 h -4.399 z" /></g><g
           transform="translate(34.6302,-2e-4)"
           id="g24"><path
             id="path26"
             style="fill:#0a40c9;fill-opacity:1;fill-rule:nonzero;stroke:none"
             d="M 0,0 C 18.558,0 33.602,15.044 33.602,33.602 33.602,52.16 18.558,67.204 0,67.204 -18.558,67.204 -33.602,52.16 -33.602,33.602 -33.602,15.044 -18.558,0 0,0" /></g><g
           transform="translate(17.4814,42.0612)"
           id="g28"><path
             id="path30"
             style="fill:#ffffff;fill-opacity:1;fill-rule:nonzero;stroke:none"
             d="M 0,0 C 2.583,0 4.677,2.094 4.677,4.677 4.677,7.26 2.583,9.354 0,9.354 -2.583,9.354 -4.677,7.26 -4.677,4.677 -4.677,2.094 -2.583,0 0,0" /></g><g
           transform="translate(34.6302,46.5703)"
           id="g32"><path
             id="path34"
             style="fill:#ffffff;fill-opacity:1;fill-rule:nonzero;stroke:none"
             d="M 0,0 C 2.583,0 4.677,2.094 4.677,4.677 4.677,7.26 2.583,9.354 0,9.354 -2.583,9.354 -4.677,7.26 -4.677,4.677 -4.677,2.094 -2.583,0 0,0" /></g><g
           transform="translate(51.7805,41.8931)"
           id="g36"><path
             id="path38"
             style="fill:#ffffff;fill-opacity:1;fill-rule:nonzero;stroke:none"
             d="M 0,0 C 2.583,0 4.677,2.094 4.677,4.677 4.677,7.26 2.583,9.354 0,9.354 -2.583,9.354 -4.677,7.26 -4.677,4.677 -4.677,2.094 -2.583,0 0,0" /></g><g
           transform="translate(68.6869,27.8081)"
           id="g40"><path
             id="path42"
             style="fill:#ffffff;fill-opacity:1;fill-rule:nonzero;stroke:none"
             d="m 0,0 h -9.753 v 4.092 c 0,0.994 -0.202,1.946 -0.568,2.81 -0.548,1.296 -1.462,2.396 -2.613,3.174 -0.576,0.389 -1.211,0.698 -1.89,0.909 -0.679,0.211 -1.401,0.324 -2.146,0.324 -0.994,0.001 -1.946,-0.202 -2.81,-0.567 -1.296,-0.549 -2.396,-1.463 -3.174,-2.614 -0.389,-0.576 -0.698,-1.211 -0.909,-1.89 -0.211,-0.679 -0.324,-1.401 -0.324,-2.146 v -9.284 l -2.582,0.056 v 4.158 9.803 c 0,0.994 -0.202,1.946 -0.568,2.81 -0.548,1.296 -1.462,2.396 -2.613,3.174 -0.576,0.389 -1.212,0.698 -1.89,0.909 -0.679,0.211 -1.401,0.325 -2.146,0.324 -0.994,10e-4 -1.946,-0.201 -2.81,-0.567 -1.296,-0.549 -2.396,-1.462 -3.174,-2.614 -0.389,-0.576 -0.698,-1.211 -0.909,-1.89 -0.211,-0.679 -0.325,-1.401 -0.324,-2.146 V -8.162 l -2.76,0.057 V 4.298 c 0,0.994 -0.202,1.946 -0.567,2.81 -0.549,1.296 -1.463,2.396 -2.614,3.174 -0.576,0.389 -1.211,0.697 -1.89,0.909 -0.679,0.211 -1.401,0.324 -2.146,0.324 -0.994,0 -1.946,-0.202 -2.81,-0.567 -1.296,-0.549 -2.396,-1.463 -3.174,-2.614 -0.389,-0.576 -0.698,-1.211 -0.909,-1.89 -0.211,-0.679 -0.324,-1.401 -0.324,-2.146 V 0.206 h -9.756 c 0.122,-0.729 0.264,-1.449 0.432,-2.161 h 10.404 c 0.285,0 0.563,0.115 0.764,0.316 0.201,0.202 0.316,0.48 0.316,0.764 v 5.173 c 0.001,0.701 0.142,1.364 0.397,1.968 0.383,0.906 1.026,1.68 1.834,2.226 0.403,0.272 0.848,0.488 1.322,0.635 0.474,0.148 0.978,0.227 1.504,0.227 0.701,0 1.363,-0.141 1.968,-0.396 0.906,-0.383 1.68,-1.026 2.225,-1.834 0.273,-0.403 0.489,-0.848 0.636,-1.322 0.148,-0.474 0.227,-0.978 0.227,-1.504 V -9.163 c 0,-0.587 0.472,-1.068 1.058,-1.08 l 4.92,-0.103 c 0.289,-0.006 0.573,0.107 0.779,0.309 0.206,0.201 0.324,0.483 0.324,0.771 V 8.825 c 0,0.701 0.142,1.364 0.397,1.968 0.383,0.906 1.026,1.68 1.833,2.226 0.404,0.273 0.849,0.488 1.323,0.636 0.474,0.147 0.978,0.227 1.504,0.227 0.701,0 1.363,-0.142 1.968,-0.397 0.906,-0.383 1.68,-1.026 2.225,-1.833 0.273,-0.404 0.489,-0.849 0.636,-1.323 0.148,-0.474 0.227,-0.978 0.227,-1.504 v -9.803 -5.215 c 0,-0.587 0.471,-1.068 1.057,-1.08 l 4.743,-0.103 c 0.288,-0.006 0.572,0.106 0.779,0.308 0.206,0.202 0.324,0.483 0.324,0.772 V 4.092 c 0.001,0.701 0.142,1.364 0.397,1.968 0.383,0.906 1.026,1.68 1.834,2.226 0.403,0.273 0.848,0.488 1.322,0.636 0.474,0.147 0.978,0.227 1.504,0.227 0.701,0 1.363,-0.142 1.968,-0.397 0.906,-0.383 1.68,-1.026 2.225,-1.833 0.273,-0.404 0.489,-0.849 0.636,-1.323 0.148,-0.474 0.227,-0.978 0.227,-1.504 V -1.08 c 0,-0.285 0.116,-0.563 0.317,-0.764 0.201,-0.202 0.479,-0.317 0.764,-0.317 h 0.946 6.254 3.18 C -0.28,-1.448 -0.127,-0.73 0,0" /></g><g
           transform="translate(68.6869,27.8081)"
           id="g44"><path
             id="path46"
             style="fill:none;stroke:#ffffff;stroke-width:0.90399998;stroke-linecap:butt;stroke-linejoin:miter;stroke-miterlimit:10;stroke-dasharray:none;stroke-opacity:1"
             d="m 0,0 h -9.753 v 4.092 c 0,0.994 -0.202,1.946 -0.568,2.81 -0.548,1.296 -1.462,2.396 -2.613,3.174 -0.576,0.389 -1.211,0.698 -1.89,0.909 -0.679,0.211 -1.401,0.324 -2.146,0.324 -0.994,0.001 -1.946,-0.202 -2.81,-0.567 -1.296,-0.549 -2.396,-1.463 -3.174,-2.614 -0.389,-0.576 -0.698,-1.211 -0.909,-1.89 -0.211,-0.679 -0.324,-1.401 -0.324,-2.146 v -9.284 l -2.582,0.056 v 4.158 9.803 c 0,0.994 -0.202,1.946 -0.568,2.81 -0.548,1.296 -1.462,2.396 -2.613,3.174 -0.576,0.389 -1.212,0.698 -1.89,0.909 -0.679,0.211 -1.401,0.325 -2.146,0.324 -0.994,10e-4 -1.946,-0.201 -2.81,-0.567 -1.296,-0.549 -2.396,-1.462 -3.174,-2.614 -0.389,-0.576 -0.698,-1.211 -0.909,-1.89 -0.211,-0.679 -0.325,-1.401 -0.324,-2.146 V -8.162 l -2.76,0.057 V 4.298 c 0,0.994 -0.202,1.946 -0.567,2.81 -0.549,1.296 -1.463,2.396 -2.614,3.174 -0.576,0.389 -1.211,0.697 -1.89,0.909 -0.679,0.211 -1.401,0.324 -2.146,0.324 -0.994,0 -1.946,-0.202 -2.81,-0.567 -1.296,-0.549 -2.396,-1.463 -3.174,-2.614 -0.389,-0.576 -0.698,-1.211 -0.909,-1.89 -0.211,-0.679 -0.324,-1.401 -0.324,-2.146 V 0.206 h -9.756 c 0.122,-0.729 0.264,-1.449 0.432,-2.161 h 10.404 c 0.285,0 0.563,0.115 0.764,0.316 0.201,0.202 0.316,0.48 0.316,0.764 v 5.173 c 0.001,0.701 0.142,1.364 0.397,1.968 0.383,0.906 1.026,1.68 1.834,2.226 0.403,0.272 0.848,0.488 1.322,0.635 0.474,0.148 0.978,0.227 1.504,0.227 0.701,0 1.363,-0.141 1.968,-0.396 0.906,-0.383 1.68,-1.026 2.225,-1.834 0.273,-0.403 0.489,-0.848 0.636,-1.322 0.148,-0.474 0.227,-0.978 0.227,-1.504 V -9.163 c 0,-0.587 0.472,-1.068 1.058,-1.08 l 4.92,-0.103 c 0.289,-0.006 0.573,0.107 0.779,0.309 0.206,0.201 0.324,0.483 0.324,0.771 V 8.825 c 0,0.701 0.142,1.364 0.397,1.968 0.383,0.906 1.026,1.68 1.833,2.226 0.404,0.273 0.849,0.488 1.323,0.636 0.474,0.147 0.978,0.227 1.504,0.227 0.701,0 1.363,-0.142 1.968,-0.397 0.906,-0.383 1.68,-1.026 2.225,-1.833 0.273,-0.404 0.489,-0.849 0.636,-1.323 0.148,-0.474 0.227,-0.978 0.227,-1.504 v -9.803 -5.215 c 0,-0.587 0.471,-1.068 1.057,-1.08 l 4.743,-0.103 c 0.288,-0.006 0.572,0.106 0.779,0.308 0.206,0.202 0.324,0.483 0.324,0.772 V 4.092 c 0.001,0.701 0.142,1.364 0.397,1.968 0.383,0.906 1.026,1.68 1.834,2.226 0.403,0.273 0.848,0.488 1.322,0.636 0.474,0.147 0.978,0.227 1.504,0.227 0.701,0 1.363,-0.142 1.968,-0.397 0.906,-0.383 1.68,-1.026 2.225,-1.833 0.273,-0.404 0.489,-0.849 0.636,-1.323 0.148,-0.474 0.227,-0.978 0.227,-1.504 V -1.08 c 0,-0.285 0.116,-0.563 0.317,-0.764 0.201,-0.202 0.479,-0.317 0.764,-0.317 h 0.946 6.254 3.18 C -0.28,-1.448 -0.127,-0.73 0,0 Z" /></g></g></g></g></svg>