<?xml version="1.0" standalone="no"?>
<!DOCTYPE svg PUBLIC "-//W3C//DTD SVG 20010904//EN"
 "http://www.w3.org/TR/2001/REC-SVG-20010904/DTD/svg10.dtd">
<svg version="1.0" xmlns="http://www.w3.org/2000/svg"
 width="260.000000pt" height="260.000000pt" viewBox="0 0 260.000000 260.000000"
 preserveAspectRatio="xMidYMid meet">
<metadata>
Created by potrace 1.14, written by Peter Selinger 2001-2017
</metadata>
<g transform="translate(0.000000,260.000000) scale(0.100000,-0.100000)"
fill="#000000" stroke="none">
<path d="M1730 2075 c0 -289 -4 -525 -8 -525 -5 0 -19 12 -33 26 -70 75 -283
188 -429 229 -170 46 -415 55 -590 20 -227 -45 -452 -150 -627 -293 l-43 -34
0 -749 0 -749 271 0 c254 0 271 1 264 17 -18 47 -33 163 -30 238 16 386 322
667 700 642 174 -12 296 -68 421 -192 133 -131 194 -282 194 -480 0 -50 -7
-117 -15 -150 -8 -33 -14 -63 -15 -67 0 -5 182 -8 405 -8 l405 0 0 1300 0
1300 -435 0 -435 0 0 -525z"/>
</g>
</svg>
